<?xml version="1.0" encoding="utf-8"?>
<!-- Generator: Adobe Illustrator 26.5.0, SVG Export Plug-In . SVG Version: 6.00 Build 0)  -->
<svg version="1.1" id="Layer_1" xmlns="http://www.w3.org/2000/svg" xmlns:xlink="http://www.w3.org/1999/xlink" x="0px" y="0px"
	 viewBox="0 0 60 60" style="enable-background:new 0 0 60 60;" xml:space="preserve">
<style type="text/css">
	.st0{fill:#AED9FC;stroke:#FFFFFF;stroke-width:0.5;stroke-miterlimit:10;}
	.st1{fill:#FFFFFF;}
	.st2{fill:#AED9FC;}
</style>
<path class="st0" d="M53.1,16.1l-9.2-9.2c-7.7-7.7-20.1-7.7-27.7,0l-9.2,9.2c-7.7,7.7-7.7,20.1,0,27.7l9.2,9.2
	c7.7,7.7,20.1,7.7,27.7,0l9.2-9.2C60.7,36.2,60.7,23.8,53.1,16.1z"/>
<rect x="17.1" y="20.5" class="st1" width="5.6" height="20.8"/>
<rect x="17.6" y="21" class="st1" width="4.6" height="19.8"/>
<polygon class="st1" points="40.5,41.4 31.4,30.2 31.4,41.4 25.8,41.4 25.8,20.5 30.4,20.5 39.5,31.7 39.5,20.5 45,20.5 45,41.4 "/>
<polygon class="st1" points="40,33.1 30.1,21 26.3,21 26.3,40.9 30.9,40.9 30.9,28.8 40.8,40.9 44.5,40.9 44.5,21 40,21 "/>
<path class="st2" d="M43.8,6.9c-7.7-7.7-20.1-7.7-27.7,0l-9.2,9.2c-7.7,7.7-7.7,20.1,0,27.7l9.2,9.2c7.7,7.7,20.1,7.7,27.7,0
	l9.2-9.2c7.7-7.7,7.7-20.1,0-27.7L43.8,6.9z M22.2,40.9h-4.6V21h4.6V40.9z M44.5,40.9h-3.8l-9.9-12v12h-4.5V21h3.8l9.9,12V21h4.5
	V40.9z"/>
</svg>
